<?xml version="1.0" encoding="utf-8"?>
<!-- Generator: Adobe Illustrator 16.0.0, SVG Export Plug-In . SVG Version: 6.00 Build 0)  -->
<!DOCTYPE svg PUBLIC "-//W3C//DTD SVG 1.1//EN" "http://www.w3.org/Graphics/SVG/1.1/DTD/svg11.dtd">
<svg version="1.1"
	 id="svg2" xmlns:cc="http://creativecommons.org/ns#" xmlns:dc="http://purl.org/dc/elements/1.1/" xmlns:rdf="http://www.w3.org/1999/02/22-rdf-syntax-ns#"
	 xmlns="http://www.w3.org/2000/svg" xmlns:xlink="http://www.w3.org/1999/xlink" x="0px" y="0px" width="300px" height="75.975px"
	 viewBox="0 0 300 75.975" enable-background="new 0 0 300 75.975" xml:space="preserve">
<g id="g10" transform="matrix(1.25 0 0 -1.25 -212.42 1013.2)">
	<g id="g3685" transform="matrix(2.0905 0 0 2.0905 81.048 -878.33)">
		<g id="g146">
			<g>
				<defs>
					<polygon id="SVGID_1_" points="36.85,770.55 171.97,770.55 171.97,812.125 36.85,812.125 36.85,770.55 					"/>
				</defs>
				<clipPath id="SVGID_2_">
					<use xlink:href="#SVGID_1_"  overflow="visible"/>
				</clipPath>
				<g id="g148" clip-path="url(#SVGID_2_)">
					<g id="g154" transform="translate(157.32 802.44)">
						<path id="path156" fill="#005F9E" d="M0.001,0l-1.82-8.607C-1.851-8.761-1.883-8.93-1.883-9.022
							c0-0.202,0.123-0.309,0.357-0.309c0.2,0,0.479,0.107,0.68,0.215l-0.249-1.172c-0.401-0.248-0.909-0.401-1.45-0.401
							c-0.817,0-1.417,0.369-1.417,1.266c0,0.215,0.029,0.493,0.106,0.832l1.512,7.141h-1.003L-3.038,0H0.001z M-6.951-4.35
							C-7.075-4.273-7.246-4.226-7.43-4.226c-1.789,0-2.931-2.16-2.931-3.734c0-0.878,0.354-1.341,1.049-1.341
							c0.493,0,0.849,0.185,1.126,0.494c0.278,0.324,0.448,0.802,0.571,1.357L-6.951-4.35L-6.951-4.35z M-4.623-3.07l-1.173-5.476
							c-0.029-0.153-0.061-0.323-0.061-0.415c0-0.201,0.108-0.308,0.339-0.308c0.201,0,0.494,0.107,0.695,0.215l-0.247-1.171
							c-0.401-0.249-0.91-0.403-1.45-0.403c-0.617,0-1.141,0.278-1.278,0.817c-0.434-0.509-1.222-0.878-2.146-0.878
							c-1.543,0-2.481,1.019-2.481,2.668c0,2.823,2.234,5.091,5.042,5.091c0.601,0,1.232-0.171,1.65-0.432L-4.623-3.07z
							 M-13.076-4.766c-0.554,0.308-1.356,0.509-1.989,0.509c-0.849,0-1.388-0.34-1.388-0.818c0-0.401,0.385-0.601,1.309-0.987
							c1.065-0.432,1.914-0.925,1.914-2.066c0-1.606-1.403-2.561-3.485-2.561c-0.894,0-1.789,0.215-2.453,0.631l0.294,1.405
							c0.648-0.463,1.542-0.694,2.252-0.694c0.91,0,1.448,0.354,1.448,0.833c0,0.431-0.4,0.648-1.372,1.018
							c-0.895,0.355-1.835,0.818-1.835,2.036c0,1.496,1.45,2.53,3.408,2.53c0.756,0,1.666-0.201,2.191-0.479L-13.076-4.766z
							 M-19.013-4.628c-0.124,0.031-0.417,0.078-0.618,0.078c-0.507,0-0.863-0.154-1.156-0.494
							c-0.385-0.447-0.556-1.172-0.756-2.083l-0.741-3.424h-2.035l1.279,6.031h-1l0.308,1.45h2.219l0.094-1.219
							c0.43,0.803,1.172,1.359,2.173,1.359c0.187,0,0.448-0.032,0.588-0.063L-19.013-4.628z M-27.378-4.273
							c-1.034,0-1.898-1.064-2.237-2.205c0.201-0.047,0.57-0.092,0.833-0.092c1.419,0,2.175,0.678,2.175,1.572
							C-26.607-4.581-26.869-4.273-27.378-4.273 M-28.488-7.789c-0.416,0-0.97,0.047-1.356,0.138c0-0.062-0.016-0.123-0.016-0.169
							c0-0.957,0.632-1.496,1.557-1.496c0.834,0,1.883,0.37,2.577,0.786l-0.293-1.435c-0.726-0.431-1.822-0.724-2.792-0.724
							c-1.774,0-3.1,0.91-3.1,2.776c0,2.546,2.02,4.983,4.72,4.983c1.419,0,2.468-0.695,2.468-2.068
							C-24.724-6.555-26.252-7.789-28.488-7.789 M-31.067-3.07l-4.333-7.481h-1.866l-1.126,7.481h2.051l0.477-4.164
							c0.047-0.447,0.078-0.956,0.033-1.341c0.107,0.354,0.368,0.909,0.601,1.341l2.281,4.164H-31.067z M-40.082-2.176
							c-0.524,0-0.909,0.37-0.909,0.911c0,0.725,0.694,1.373,1.404,1.373c0.524,0,0.925-0.37,0.925-0.91
							C-38.662-1.527-39.371-2.176-40.082-2.176 M-39.156-3.07l-1.172-5.537c-0.03-0.154-0.063-0.323-0.063-0.415
							c0-0.202,0.125-0.309,0.355-0.309c0.201,0,0.478,0.107,0.679,0.215l-0.246-1.172c-0.402-0.248-0.911-0.401-1.449-0.401
							c-0.819,0-1.421,0.369-1.421,1.266c0,0.215,0.033,0.493,0.109,0.832L-41.5-4.52h-1.003l0.31,1.45H-39.156z M-43.675-10.288
							c-0.401-0.248-0.91-0.401-1.45-0.401c-0.817,0-1.418,0.369-1.418,1.266c0,0.215,0.029,0.493,0.107,0.832l0.494,2.36
							c0.076,0.37,0.122,0.678,0.122,0.894c0,0.278-0.076,0.494-0.231,0.648c-0.153,0.154-0.4,0.247-0.694,0.247
							c-0.524,0-0.971-0.278-1.279-0.725c-0.308-0.447-0.495-1.064-0.694-2.005l-0.726-3.379h-2.037l1.266,6.031h-1.003l0.309,1.45
							h2.237l0.093-1.141c0.509,0.71,1.434,1.281,2.544,1.281c1.358,0,2.314-0.741,2.314-2.068c0-0.385-0.093-0.833-0.186-1.296
							L-44.4-8.607c-0.03-0.154-0.061-0.323-0.061-0.415c0-0.202,0.122-0.309,0.354-0.309c0.2,0,0.479,0.107,0.678,0.215
							L-43.675-10.288L-43.675-10.288z M-51.387-0.787l-1.25-5.846c-0.277-1.327-0.632-2.174-1.28-2.853
							c-0.741-0.772-1.85-1.203-3.286-1.203c-1.742,0-3.254,0.755-3.254,2.668c0,0.324,0.093,0.941,0.232,1.588l1.187,5.646h2.144
							l-1.295-6.077c-0.062-0.308-0.108-0.694-0.108-0.956c0-0.849,0.586-1.218,1.372-1.218c0.602,0,1.126,0.231,1.466,0.616
							c0.308,0.355,0.524,0.895,0.647,1.482l1.313,6.153H-51.387z"/>
					</g>
					<g id="g158" transform="translate(135.72 786.44)">
						<path id="path160" fill="#00AAE7" d="M0,0l-0.308-1.45h-1.727l-0.756-3.547c-0.031-0.185-0.061-0.401-0.061-0.524
							c0-0.478,0.293-0.678,0.77-0.678c0.478,0,1.079,0.2,1.45,0.4l-0.261-1.312c-0.463-0.293-1.219-0.508-1.945-0.508
							c-1.217,0-2.096,0.616-2.096,1.789c0,0.262,0.06,0.664,0.123,0.972l0.725,3.408h-1.203L-4.981,0h1.203l0.385,1.851l2.16,0.509
							L-1.742,0H0z M-6.87,0.894c-0.522,0-0.91,0.37-0.91,0.911c0,0.725,0.696,1.373,1.404,1.373c0.525,0,0.926-0.37,0.926-0.91
							C-5.45,1.543-6.16,0.894-6.87,0.894 M-5.944,0l-1.173-5.537c-0.029-0.154-0.06-0.323-0.06-0.416
							c0-0.201,0.123-0.308,0.356-0.308c0.199,0,0.476,0.107,0.677,0.215l-0.248-1.172C-6.79-7.466-7.299-7.619-7.841-7.619
							c-0.817,0-1.419,0.369-1.419,1.266c0,0.215,0.032,0.493,0.109,0.832l0.862,4.071H-9.29L-8.982,0H-5.944z M-12.46-1.264
							c-0.109,0.061-0.388,0.108-0.618,0.108c-1.574,0-2.869-1.928-2.869-3.718c0-0.878,0.433-1.357,1.126-1.357
							c0.492,0,0.831,0.185,1.109,0.494c0.279,0.324,0.464,0.802,0.587,1.357L-12.46-1.264z M-9.498,3.07l-1.807-8.546
							c-0.031-0.168-0.061-0.338-0.061-0.415c0-0.201,0.123-0.308,0.339-0.308c0.2,0,0.492,0.107,0.694,0.215l-0.247-1.171
							c-0.4-0.249-0.909-0.403-1.45-0.403c-0.617,0-1.141,0.278-1.28,0.817c-0.431-0.509-1.219-0.878-2.143-0.878
							c-1.543,0-2.561,1.034-2.561,2.684c0,2.683,2.097,5.075,5.043,5.075c0.294,0,0.603-0.032,0.787-0.079l0.325,1.559h-0.989
							l0.308,1.45H-9.498z M-20.977-1.203c-1.031,0-1.895-1.064-2.236-2.205c0.201-0.047,0.571-0.092,0.835-0.092
							c1.418,0,2.174,0.678,2.174,1.572C-20.204-1.511-20.467-1.203-20.977-1.203 M-22.086-4.719c-0.417,0-0.973,0.047-1.357,0.138
							c0-0.062-0.016-0.123-0.016-0.169c0-0.957,0.632-1.496,1.557-1.496c0.833,0,1.883,0.37,2.576,0.786l-0.293-1.435
							c-0.725-0.431-1.819-0.724-2.792-0.724c-1.773,0-3.1,0.91-3.1,2.776c0,2.546,2.022,4.983,4.72,4.983
							c1.418,0,2.468-0.695,2.468-2.068C-18.323-3.485-19.851-4.719-22.086-4.719 M-25.333-1.558
							c-0.123,0.031-0.416,0.078-0.617,0.078c-0.509,0-0.864-0.154-1.157-0.494c-0.387-0.447-0.556-1.172-0.757-2.083l-0.739-3.424
							h-2.036l1.279,6.031h-1.001L-30.055,0h2.221l0.095-1.219c0.43,0.802,1.17,1.359,2.173,1.359c0.185,0,0.447-0.032,0.587-0.063
							L-25.333-1.558z M-30.805-0.756l-2.221-0.061c0.017,0.123,0.033,0.308,0.033,0.431c0,0.68-0.248,1.22-1.049,1.22
							c-1.775,0-2.931-2.931-2.931-4.828c0-1.296,0.647-2.005,1.943-2.005c1.032,0,2.22,0.447,3.084,0.972L-32.3-6.709
							c-0.865-0.525-2.068-0.91-3.254-0.91c-1.05,0-1.99,0.293-2.606,0.847c-0.664,0.603-1.019,1.513-1.019,2.67
							c0,3.115,2.05,6.523,5.336,6.523c1.697,0,3.071-0.847,3.071-2.683C-30.772-0.401-30.787-0.647-30.805-0.756"/>
					</g>
					<g id="g162" transform="translate(59.499 807.64)">
						<path id="path164" fill="#005F9E" d="M0,0v-23.892c2.897,1.394,5.047,4.091,5.695,7.33c0.1,0.508,0.167,1.029,0.192,1.56
							h0.014V0H0z"/>
					</g>
					<g id="g166" transform="translate(48.419 783.75)">
						<path id="path168" fill="#005F9E" d="M0,0v23.892h-5.899V9.257V9.25V9.244V8.869h0.012C-5.696,4.954-3.344,1.61,0,0"/>
					</g>
					<g id="g170" transform="translate(84.466 806.04)">
						<path id="path172" fill="#005F9E" d="M0,0c-2.894,0-5.556-1.01-7.671-2.701c0.823,0.15,1.668,0.23,2.523,0.23
							c1.235,0,2.743-0.326,4.205-0.994c2.2-1.004,4.421-2.465,5.73-4.987l4.061,4.06c-0.462,0.741-0.993,1.4-1.569,1.991
							C5.231-0.891,2.718,0,0,0"/>
					</g>
					<g id="g174" transform="translate(79.317 783.11)">
						<path id="path176" fill="#005F9E" d="M0,0c-0.908,0-1.806,0.088-2.677,0.256c2.141-1.764,4.862-2.823,7.825-2.823
							c2.43,0,4.696,0.712,6.612,1.939c0.685,0.632,1.328,1.361,1.91,2.198L9.953,5.287C7.66,1.701,2.835,0,0,0"/>
					</g>
				</g>
			</g>
		</g>
		<g id="g178">
			<g id="g180">
				<g id="g186">
					<g id="g188">
						
							<linearGradient id="path196_1_" gradientUnits="userSpaceOnUse" x1="-124.3805" y1="635.8683" x2="175.6209" y2="635.8683" gradientTransform="matrix(28.9534 0 0 -28.9534 3649.6658 19191.8789)">
							<stop  offset="0" style="stop-color:#00AAE7"/>
							<stop  offset="1" style="stop-color:#005F9E"/>
						</linearGradient>
						<path id="path196" fill="url(#path196_1_)" d="M53.923,782.72c-1.998,0-3.816,0.369-5.504,1.028v-0.495l0.006-0.121
							c0.103-2.118,1.658-3.832,3.68-4.204c0.336-0.022,0.801-0.06,2.265-0.07c0.514-0.004,1.021,0.017,1.503,0.082
							c1.962,0.391,3.471,2.045,3.613,4.104c0.001,0.03,0.005,0.061,0.006,0.092l0.007,0.107v0.505
							C57.813,783.089,55.922,782.72,53.923,782.72"/>
					</g>
				</g>
			</g>
		</g>
		<g id="g198">
			<g id="g200">
				<g id="g206">
					<g id="g208">
						
							<linearGradient id="path216_1_" gradientUnits="userSpaceOnUse" x1="-123.6889" y1="636.5306" x2="176.3125" y2="636.5306" gradientTransform="matrix(24.2712 0 0 -24.2712 3069.5918 16242.7432)">
							<stop  offset="0" style="stop-color:#00AAE7"/>
							<stop  offset="1" style="stop-color:#005F9E"/>
						</linearGradient>
						<path id="path216" fill="url(#path216_1_)" d="M67.506,793.34c0.023-5.336,4.128-9.001,9.133-9.973
							c-2.831,2.338-4.644,5.914-4.644,9.925c0,4.082,1.88,7.713,4.799,10.048C71.717,802.414,67.53,798.729,67.506,793.34"/>
					</g>
				</g>
			</g>
		</g>
		<g id="g218">
			<g>
				<defs>
					<polygon id="SVGID_3_" points="36.85,770.55 171.97,770.55 171.97,812.125 36.85,812.125 36.85,770.55 					"/>
				</defs>
				<clipPath id="SVGID_4_">
					<use xlink:href="#SVGID_3_"  overflow="visible"/>
				</clipPath>
				<g id="g220" clip-path="url(#SVGID_4_)">
					<g id="g226" transform="translate(76.64 783.36)">
						<path id="path228" fill="#00437B" d="M0,0c-5.006,0.972-9.111,4.638-9.133,9.972V9.949c0,0.008-0.002,0.016-0.002,0.023
							c0-8.027,6.365-14.533,14.217-14.537c0.04,0,0.079,0.002,0.12,0.002c2.562,0.026,6.27,0.938,9.236,3.68
							c-1.917-1.228-4.183-1.94-6.612-1.94C4.862-2.823,2.141-1.764,0,0 M5.082,24.509h0.053c2.496-0.013,6.329-0.981,9.262-3.558
							c0.077-0.068,0.154-0.137,0.228-0.206c0.004-0.004,0.007-0.006,0.009-0.008c0.167-0.155,0.33-0.314,0.491-0.477
							c-2.053,1.516-4.573,2.414-7.299,2.414c-2.894,0-5.556-1.011-7.671-2.701c-5.078-0.924-9.265-4.611-9.288-10.001v0.025
							c0-0.008-0.002-0.016-0.002-0.025v0.002C-9.135,17.999-2.77,24.507,5.082,24.509 M-17.141,0.385V-0.12l-0.005-0.107
							c-0.103-2.122-1.659-3.836-3.679-4.207c5.194,0.407,9.316,4.624,9.571,9.86h0.014v3.786v0.042h-0.014
							C-11.443,5.339-13.796,1.995-17.141,0.385 M-34.107,5.426h-0.013v0.469v0.007v0.004v0.03V5.94v0.006v3.266v0.042h0.013
							c0.191-3.915,2.543-7.259,5.886-8.869V-0.11l0.006-0.121c0.103-2.118,1.658-3.832,3.68-4.203
							C-29.729-4.027-33.852,0.19-34.107,5.426"/>
					</g>
				</g>
			</g>
		</g>
	</g>
</g>
</svg>
